# xmcd CD database file
#
# Track frame offsets:
#	150
#	31832
#	54552
#	75383
#	92325
#	119301
#	144294
#	156314
#	173331
#	192271
#
# Disc length: 2760 seconds
#
# Revision: 1
# Processed by: cddbd v1.4PL0 Copyright (c) Steve Scherf et al.
# Submitted via: CDex 1.50
#
DISCID=6c0ac60a
DTITLE=Quartet Sensitive - Afternoon With Jobim
DYEAR=1999
DGENRE=Jazz
TTITLE0=No More Blues
TTITLE1=Don't Ever Go Away
TTITLE2=Quiet Nights of Quiet Stars
TTITLE3=Triste
TTITLE4=How Insensitive
TTITLE5=Wave
TTITLE6=Desafinado
TTITLE7=Aqua de Beber
TTITLE8=The Girl From Ipanema
TTITLE9=Aruanda
EXTD=YEAR: 1999
EXTT0=
EXTT1=
EXTT2=
EXTT3=
EXTT4=
EXTT5=
EXTT6=
EXTT7=
EXTT8=
EXTT9=
PLAYORDER=
